
  <svg
  width="191" height="212" viewBox="0 0 191 212"  fill="none" xmlns="http://www.w3.org/2000/svg">
    <g opacity="0.5">
    <line x1="94.76" y1="199.276" x2="90.4999" y2="210.98" stroke="#92BAFB" stroke-width="2"/>
    <line x1="68.1356" y1="199.822" x2="61.9077" y2="210.609" stroke="#92BAFB" stroke-width="2"/>
    <line x1="41.3442" y1="200.355" x2="33.3378" y2="209.896" stroke="#92BAFB" stroke-width="2"/>
    <line x1="14.3498" y1="201.256" x2="4.8082" y2="209.263" stroke="#92BAFB" stroke-width="2"/>
    <line x1="174.063" y1="198.37" x2="176.226" y2="210.637" stroke="#92BAFB" stroke-width="2"/>
    <line x1="147.676" y1="198.544" x2="147.676" y2="211" stroke="#92BAFB" stroke-width="2"/>
    <line x1="121.258" y1="198.718" x2="119.095" y2="210.984" stroke="#92BAFB" stroke-width="2"/>
    <line x1="122.783" y1="177.479" x2="118.523" y2="189.183" stroke="#92BAFB" stroke-width="2"/>
    <line x1="96.1629" y1="178.025" x2="89.9351" y2="188.812" stroke="#92BAFB" stroke-width="2"/>
    <line x1="69.3715" y1="178.557" x2="61.3651" y2="188.098" stroke="#92BAFB" stroke-width="2"/>
    <line x1="42.3733" y1="179.457" x2="32.8316" y2="187.464" stroke="#92BAFB" stroke-width="2"/>
    <line x1="15.1406" y1="180.725" x2="4.35368" y2="186.953" stroke="#92BAFB" stroke-width="2"/>
    <line x1="175.703" y1="176.746" x2="175.703" y2="189.202" stroke="#92BAFB" stroke-width="2"/>
    <line x1="149.282" y1="176.92" x2="147.119" y2="189.186" stroke="#92BAFB" stroke-width="2"/>
    <line x1="150.811" y1="155.68" x2="146.551" y2="167.384" stroke="#92BAFB" stroke-width="2"/>
    <line x1="124.186" y1="156.227" x2="117.958" y2="167.014" stroke="#92BAFB" stroke-width="2"/>
    <line x1="97.395" y1="156.76" x2="89.3886" y2="166.302" stroke="#92BAFB" stroke-width="2"/>
    <line x1="70.3967" y1="157.661" x2="60.8551" y2="165.667" stroke="#92BAFB" stroke-width="2"/>
    <line x1="43.1641" y1="158.929" x2="32.3771" y2="165.156" stroke="#92BAFB" stroke-width="2"/>
    <line x1="15.6701" y1="159.781" x2="3.96562" y2="164.042" stroke="#92BAFB" stroke-width="2"/>
    <line x1="177.309" y1="155.123" x2="175.146" y2="167.389" stroke="#92BAFB" stroke-width="2"/>
    <line x1="178.834" y1="133.883" x2="174.574" y2="145.588" stroke="#92BAFB" stroke-width="2"/>
    <line x1="152.214" y1="134.43" x2="145.986" y2="145.217" stroke="#92BAFB" stroke-width="2"/>
    <line x1="125.422" y1="134.963" x2="117.416" y2="144.505" stroke="#92BAFB" stroke-width="2"/>
    <line x1="98.424" y1="135.864" x2="88.8824" y2="143.87" stroke="#92BAFB" stroke-width="2"/>
    <line x1="71.1875" y1="137.132" x2="60.4006" y2="143.359" stroke="#92BAFB" stroke-width="2"/>
    <line x1="43.6936" y1="137.983" x2="31.9891" y2="142.243" stroke="#92BAFB" stroke-width="2"/>
    <line x1="15.9197" y1="139.196" x2="3.65328" y2="141.359" stroke="#92BAFB" stroke-width="2"/>
    <line x1="180.237" y1="112.633" x2="174.009" y2="123.42" stroke="#92BAFB" stroke-width="2"/>
    <line x1="153.446" y1="113.164" x2="145.439" y2="122.706" stroke="#92BAFB" stroke-width="2"/>
    <line x1="126.447" y1="114.067" x2="116.906" y2="122.073" stroke="#92BAFB" stroke-width="2"/>
    <line x1="99.2148" y1="115.335" x2="88.4279" y2="121.563" stroke="#92BAFB" stroke-width="2"/>
    <line x1="71.7209" y1="116.186" x2="60.0164" y2="120.446" stroke="#92BAFB" stroke-width="2"/>
    <line x1="43.9471" y1="117.399" x2="31.6806" y2="119.562" stroke="#92BAFB" stroke-width="2"/>
    <line x1="0.320313" y1="116.582" x2="12.776" y2="116.582" stroke="#92BAFB" stroke-width="2"/>
    <line x1="181.473" y1="91.3674" x2="173.467" y2="100.909" stroke="#92BAFB" stroke-width="2"/>
    <line x1="154.475" y1="92.27" x2="144.933" y2="100.276" stroke="#92BAFB" stroke-width="2"/>
    <line x1="127.238" y1="93.5379" x2="116.451" y2="99.7657" stroke="#92BAFB" stroke-width="2"/>
    <line x1="99.7444" y1="94.3889" x2="88.0398" y2="98.649" stroke="#92BAFB" stroke-width="2"/>
    <line x1="71.9705" y1="95.602" x2="59.7041" y2="97.7649" stroke="#92BAFB" stroke-width="2"/>
    <line x1="28.3477" y1="94.7852" x2="40.8034" y2="94.7852" stroke="#92BAFB" stroke-width="2"/>
    <line x1="0.634586" y1="93.6324" x2="12.9011" y2="95.7953" stroke="#92BAFB" stroke-width="2"/>
    <line x1="182.498" y1="70.4711" x2="172.957" y2="78.4775" stroke="#92BAFB" stroke-width="2"/>
    <line x1="155.266" y1="71.7391" x2="144.479" y2="77.9669" stroke="#92BAFB" stroke-width="2"/>
    <line x1="127.772" y1="72.592" x2="116.067" y2="76.8521" stroke="#92BAFB" stroke-width="2"/>
    <line x1="99.9979" y1="73.8051" x2="87.7314" y2="75.968" stroke="#92BAFB" stroke-width="2"/>
    <line x1="56.3711" y1="72.9883" x2="68.8268" y2="72.9883" stroke="#92BAFB" stroke-width="2"/>
    <line x1="28.6619" y1="71.8355" x2="40.9284" y2="73.9984" stroke="#92BAFB" stroke-width="2"/>
    <line x1="1.22483" y1="70.7127" x2="12.9294" y2="74.9727" stroke="#92BAFB" stroke-width="2"/>
    <line x1="183.289" y1="49.9422" x2="172.502" y2="56.17" stroke="#92BAFB" stroke-width="2"/>
    <line x1="155.795" y1="50.7952" x2="144.091" y2="55.0553" stroke="#92BAFB" stroke-width="2"/>
    <line x1="128.021" y1="52.0063" x2="115.755" y2="54.1692" stroke="#92BAFB" stroke-width="2"/>
    <line x1="2.07031" y1="48.2101" x2="12.8573" y2="54.438" stroke="#92BAFB" stroke-width="2"/>
    <line x1="84.3945" y1="51.1895" x2="96.8502" y2="51.1895" stroke="#92BAFB" stroke-width="2"/>
    <line x1="56.6854" y1="50.0367" x2="68.9518" y2="52.1996" stroke="#92BAFB" stroke-width="2"/>
    <line x1="29.2522" y1="48.9158" x2="40.9567" y2="53.1759" stroke="#92BAFB" stroke-width="2"/>
    <line x1="183.822" y1="28.9963" x2="172.118" y2="33.2564" stroke="#92BAFB" stroke-width="2"/>
    <line x1="156.049" y1="30.2094" x2="143.782" y2="32.3723" stroke="#92BAFB" stroke-width="2"/>
    <line x1="30.0977" y1="26.4113" x2="40.8846" y2="32.6392" stroke="#92BAFB" stroke-width="2"/>
    <line x1="3.14669" y1="25.3433" x2="12.6883" y2="33.3497" stroke="#92BAFB" stroke-width="2"/>
    <line x1="112.422" y1="29.3926" x2="124.878" y2="29.3926" stroke="#92BAFB" stroke-width="2"/>
    <line x1="84.7127" y1="28.2398" x2="96.9792" y2="30.4027" stroke="#92BAFB" stroke-width="2"/>
    <line x1="57.2756" y1="27.1169" x2="68.9801" y2="31.377" stroke="#92BAFB" stroke-width="2"/>
    <line x1="184.072" y1="8.41059" x2="171.806" y2="10.5735" stroke="#92BAFB" stroke-width="2"/>
    <line x1="58.1211" y1="4.61444" x2="68.908" y2="10.8423" stroke="#92BAFB" stroke-width="2"/>
    <line x1="31.174" y1="3.54646" x2="40.7157" y2="11.5528" stroke="#92BAFB" stroke-width="2"/>
    <line x1="4.42229" y1="2.89237" x2="12.4287" y2="12.434" stroke="#92BAFB" stroke-width="2"/>
    <line x1="140.445" y1="7.59375" x2="152.901" y2="7.59375" stroke="#92BAFB" stroke-width="2"/>
    <line x1="112.736" y1="6.44097" x2="125.003" y2="8.60388" stroke="#92BAFB" stroke-width="2"/>
    <line x1="85.2991" y1="5.31812" x2="97.0036" y2="9.57822" stroke="#92BAFB" stroke-width="2"/>
    </g>
    </svg>