<svg xmlns="http://www.w3.org/2000/svg" width="1440" height="585" viewBox="0 0 1440 585" fill="none">
<path d="M0 40H1440V390.883C576.57 136.795 401.794 525.186 0 390.883V40Z" fill="#060B27" fill-opacity="0.8"/>
<path d="M0 0H1440V350.883C576.57 96.7953 401.794 485.187 0 350.883V0Z" fill="#060B27"/>
<g opacity="0.5">
<line x1="1300.76" y1="199.276" x2="1296.5" y2="210.98" stroke="#92BAFB" stroke-width="2"/>
<line x1="1274.14" y1="199.822" x2="1267.91" y2="210.609" stroke="#92BAFB" stroke-width="2"/>
<line x1="1247.34" y1="200.355" x2="1239.34" y2="209.896" stroke="#92BAFB" stroke-width="2"/>
<line x1="1220.35" y1="201.256" x2="1210.81" y2="209.263" stroke="#92BAFB" stroke-width="2"/>
<line x1="1432.95" y1="198.822" x2="1439.18" y2="209.609" stroke="#92BAFB" stroke-width="2"/>
<line x1="1406.47" y1="198.592" x2="1410.73" y2="210.296" stroke="#92BAFB" stroke-width="2"/>
<line x1="1380.06" y1="198.37" x2="1382.23" y2="210.637" stroke="#92BAFB" stroke-width="2"/>
<line x1="1353.68" y1="198.544" x2="1353.68" y2="211" stroke="#92BAFB" stroke-width="2"/>
<line x1="1327.26" y1="198.718" x2="1325.1" y2="210.984" stroke="#92BAFB" stroke-width="2"/>
<line x1="1328.78" y1="177.478" x2="1324.52" y2="189.182" stroke="#92BAFB" stroke-width="2"/>
<line x1="1302.16" y1="178.025" x2="1295.94" y2="188.812" stroke="#92BAFB" stroke-width="2"/>
<line x1="1275.37" y1="178.557" x2="1267.37" y2="188.098" stroke="#92BAFB" stroke-width="2"/>
<line x1="1248.37" y1="179.458" x2="1238.83" y2="187.465" stroke="#92BAFB" stroke-width="2"/>
<line x1="1221.14" y1="180.726" x2="1210.35" y2="186.954" stroke="#92BAFB" stroke-width="2"/>
<line x1="1434.5" y1="176.794" x2="1438.76" y2="188.498" stroke="#92BAFB" stroke-width="2"/>
<line x1="1408.09" y1="176.573" x2="1410.25" y2="188.84" stroke="#92BAFB" stroke-width="2"/>
<line x1="1381.7" y1="176.747" x2="1381.7" y2="189.203" stroke="#92BAFB" stroke-width="2"/>
<line x1="1355.28" y1="176.921" x2="1353.12" y2="189.187" stroke="#92BAFB" stroke-width="2"/>
<line x1="1356.81" y1="155.68" x2="1352.55" y2="167.384" stroke="#92BAFB" stroke-width="2"/>
<line x1="1330.19" y1="156.228" x2="1323.96" y2="167.014" stroke="#92BAFB" stroke-width="2"/>
<line x1="1303.39" y1="156.76" x2="1295.39" y2="166.302" stroke="#92BAFB" stroke-width="2"/>
<line x1="1276.4" y1="157.662" x2="1266.86" y2="165.668" stroke="#92BAFB" stroke-width="2"/>
<line x1="1249.16" y1="158.93" x2="1238.38" y2="165.157" stroke="#92BAFB" stroke-width="2"/>
<line x1="1221.67" y1="159.781" x2="1209.97" y2="164.042" stroke="#92BAFB" stroke-width="2"/>
<line x1="1436.11" y1="154.776" x2="1438.28" y2="167.042" stroke="#92BAFB" stroke-width="2"/>
<line x1="1409.73" y1="154.949" x2="1409.73" y2="167.405" stroke="#92BAFB" stroke-width="2"/>
<line x1="1383.31" y1="155.123" x2="1381.15" y2="167.389" stroke="#92BAFB" stroke-width="2"/>
<line x1="1384.83" y1="133.883" x2="1380.57" y2="145.588" stroke="#92BAFB" stroke-width="2"/>
<line x1="1358.21" y1="134.43" x2="1351.99" y2="145.217" stroke="#92BAFB" stroke-width="2"/>
<line x1="1331.42" y1="134.962" x2="1323.42" y2="144.504" stroke="#92BAFB" stroke-width="2"/>
<line x1="1304.42" y1="135.864" x2="1294.88" y2="143.87" stroke="#92BAFB" stroke-width="2"/>
<line x1="1277.19" y1="137.132" x2="1266.4" y2="143.359" stroke="#92BAFB" stroke-width="2"/>
<line x1="1249.69" y1="137.984" x2="1237.99" y2="142.244" stroke="#92BAFB" stroke-width="2"/>
<line x1="1221.92" y1="139.197" x2="1209.65" y2="141.36" stroke="#92BAFB" stroke-width="2"/>
<line x1="1437.75" y1="133.151" x2="1437.75" y2="145.607" stroke="#92BAFB" stroke-width="2"/>
<line x1="1411.33" y1="133.325" x2="1409.17" y2="145.591" stroke="#92BAFB" stroke-width="2"/>
<line x1="1412.86" y1="112.085" x2="1408.6" y2="123.79" stroke="#92BAFB" stroke-width="2"/>
<line x1="1386.24" y1="112.633" x2="1380.01" y2="123.42" stroke="#92BAFB" stroke-width="2"/>
<line x1="1359.45" y1="113.164" x2="1351.44" y2="122.706" stroke="#92BAFB" stroke-width="2"/>
<line x1="1332.45" y1="114.067" x2="1322.91" y2="122.073" stroke="#92BAFB" stroke-width="2"/>
<line x1="1305.21" y1="115.334" x2="1294.43" y2="121.562" stroke="#92BAFB" stroke-width="2"/>
<line x1="1277.72" y1="116.187" x2="1266.02" y2="120.447" stroke="#92BAFB" stroke-width="2"/>
<line x1="1249.95" y1="117.399" x2="1237.68" y2="119.562" stroke="#92BAFB" stroke-width="2"/>
<line x1="1439.36" y1="111.528" x2="1437.2" y2="123.795" stroke="#92BAFB" stroke-width="2"/>
<line x1="1206.32" y1="116.582" x2="1218.78" y2="116.582" stroke="#92BAFB" stroke-width="2"/>
<line x1="1440.89" y1="90.2883" x2="1436.62" y2="101.993" stroke="#92BAFB" stroke-width="2"/>
<line x1="1414.26" y1="90.835" x2="1408.04" y2="101.622" stroke="#92BAFB" stroke-width="2"/>
<line x1="1387.47" y1="91.3674" x2="1379.47" y2="100.909" stroke="#92BAFB" stroke-width="2"/>
<line x1="1360.47" y1="92.269" x2="1350.93" y2="100.275" stroke="#92BAFB" stroke-width="2"/>
<line x1="1333.24" y1="93.5369" x2="1322.45" y2="99.7648" stroke="#92BAFB" stroke-width="2"/>
<line x1="1305.74" y1="94.3889" x2="1294.04" y2="98.649" stroke="#92BAFB" stroke-width="2"/>
<line x1="1277.97" y1="95.602" x2="1265.7" y2="97.7649" stroke="#92BAFB" stroke-width="2"/>
<line x1="1234.35" y1="94.7842" x2="1246.8" y2="94.7842" stroke="#92BAFB" stroke-width="2"/>
<line x1="1206.63" y1="93.6324" x2="1218.9" y2="95.7953" stroke="#92BAFB" stroke-width="2"/>
<line x1="1442.29" y1="69.0381" x2="1436.06" y2="79.825" stroke="#92BAFB" stroke-width="2"/>
<line x1="1415.5" y1="69.5695" x2="1407.49" y2="79.1112" stroke="#92BAFB" stroke-width="2"/>
<line x1="1388.5" y1="70.4711" x2="1378.96" y2="78.4775" stroke="#92BAFB" stroke-width="2"/>
<line x1="1361.27" y1="71.7391" x2="1350.48" y2="77.9669" stroke="#92BAFB" stroke-width="2"/>
<line x1="1333.77" y1="72.5911" x2="1322.07" y2="76.8512" stroke="#92BAFB" stroke-width="2"/>
<line x1="1306" y1="73.8041" x2="1293.73" y2="75.9671" stroke="#92BAFB" stroke-width="2"/>
<line x1="1262.37" y1="72.9873" x2="1274.83" y2="72.9873" stroke="#92BAFB" stroke-width="2"/>
<line x1="1234.66" y1="71.8345" x2="1246.93" y2="73.9974" stroke="#92BAFB" stroke-width="2"/>
<line x1="1207.22" y1="70.7117" x2="1218.93" y2="74.9718" stroke="#92BAFB" stroke-width="2"/>
<line x1="1443.52" y1="47.7727" x2="1435.52" y2="57.3143" stroke="#92BAFB" stroke-width="2"/>
<line x1="1416.53" y1="48.6742" x2="1406.98" y2="56.6806" stroke="#92BAFB" stroke-width="2"/>
<line x1="1389.29" y1="49.9422" x2="1378.5" y2="56.17" stroke="#92BAFB" stroke-width="2"/>
<line x1="1361.8" y1="50.7942" x2="1350.09" y2="55.0543" stroke="#92BAFB" stroke-width="2"/>
<line x1="1334.02" y1="52.0063" x2="1321.75" y2="54.1692" stroke="#92BAFB" stroke-width="2"/>
<line x1="1208.07" y1="48.2101" x2="1218.86" y2="54.438" stroke="#92BAFB" stroke-width="2"/>
<line x1="1290.39" y1="51.1895" x2="1302.85" y2="51.1895" stroke="#92BAFB" stroke-width="2"/>
<line x1="1262.69" y1="50.0367" x2="1274.95" y2="52.1996" stroke="#92BAFB" stroke-width="2"/>
<line x1="1235.25" y1="48.9148" x2="1246.96" y2="53.1749" stroke="#92BAFB" stroke-width="2"/>
<line x1="1444.55" y1="26.8764" x2="1435.01" y2="34.8828" stroke="#92BAFB" stroke-width="2"/>
<line x1="1417.32" y1="28.1443" x2="1406.53" y2="34.3722" stroke="#92BAFB" stroke-width="2"/>
<line x1="1389.82" y1="28.9963" x2="1378.12" y2="33.2564" stroke="#92BAFB" stroke-width="2"/>
<line x1="1362.05" y1="30.2094" x2="1349.78" y2="32.3723" stroke="#92BAFB" stroke-width="2"/>
<line x1="1236.1" y1="26.4123" x2="1246.88" y2="32.6401" stroke="#92BAFB" stroke-width="2"/>
<line x1="1209.15" y1="25.3443" x2="1218.69" y2="33.3507" stroke="#92BAFB" stroke-width="2"/>
<line x1="1318.42" y1="29.3926" x2="1330.88" y2="29.3926" stroke="#92BAFB" stroke-width="2"/>
<line x1="1290.71" y1="28.2398" x2="1302.98" y2="30.4027" stroke="#92BAFB" stroke-width="2"/>
<line x1="1263.28" y1="27.1169" x2="1274.98" y2="31.377" stroke="#92BAFB" stroke-width="2"/>
<line x1="1445.34" y1="6.34649" x2="1434.55" y2="12.5743" stroke="#92BAFB" stroke-width="2"/>
<line x1="1417.85" y1="7.19848" x2="1406.14" y2="11.4586" stroke="#92BAFB" stroke-width="2"/>
<line x1="1390.07" y1="8.41157" x2="1377.81" y2="10.5745" stroke="#92BAFB" stroke-width="2"/>
<line x1="1264.12" y1="4.61444" x2="1274.91" y2="10.8423" stroke="#92BAFB" stroke-width="2"/>
<line x1="1237.17" y1="3.54743" x2="1246.72" y2="11.5538" stroke="#92BAFB" stroke-width="2"/>
<line x1="1210.42" y1="2.89139" x2="1218.43" y2="12.433" stroke="#92BAFB" stroke-width="2"/>
<line x1="1346.45" y1="7.59473" x2="1358.9" y2="7.59473" stroke="#92BAFB" stroke-width="2"/>
<line x1="1318.74" y1="6.44195" x2="1331" y2="8.60486" stroke="#92BAFB" stroke-width="2"/>
<line x1="1291.3" y1="5.3191" x2="1303" y2="9.5792" stroke="#92BAFB" stroke-width="2"/>
</g>
</svg>