<svg width="80" height="36" viewBox="0 0 80 36" fill="none" xmlns="http://www.w3.org/2000/svg">
      <path d="M50.2805 32.3276C57.6522 32.0904 63.2499 31.5783 68.7319 29.8224C70.7025 29.1297 72.6354 28.2093 74.5178 27.0672C75.3645 26.5245 76.1389 25.7218 76.8059 24.6957C77.9215 23.0748 77.8934 21.3729 76.7306 19.6211C75.9419 18.4561 75.0878 17.4354 74.1835 16.5772C71.8441 14.3253 69.3396 12.863 66.824 11.5144C60.6135 8.28023 54.2806 6.05751 47.911 4.8764C40.6892 3.39631 33.451 3.05629 26.2869 3.86056C21.0007 4.41474 15.7661 5.57488 10.617 7.33342C7.71458 8.34909 4.80971 9.36491 1.90244 10.3809L1.79308 10.4253C1.0294 10.648 0.546915 10.3255 0.416729 9.49739C0.286543 8.6693 0.610953 8.12142 1.3977 7.803C6.33882 5.83496 11.3009 3.7965 16.3728 2.60623C21.8152 1.27581 27.3269 0.564935 32.8732 0.478094C42.2789 0.356147 51.7385 2.14468 61.0591 5.8072C64.7684 7.1803 68.4206 9.13485 71.9694 11.646C73.5939 12.8976 75.1747 14.3341 76.701 15.9455C77.3748 16.6834 77.9718 17.6233 78.4612 18.7169C79.5736 21.0627 79.6352 23.7243 78.5538 25.846C77.9141 27.0801 77.1642 28.1282 76.3289 28.9554C74.3621 30.9049 72.1364 31.8143 69.8877 32.5238C62.6697 34.8009 55.3091 35.3956 47.889 35.1957C44.8798 35.1158 41.8688 35.0673 38.8587 34.8554C34.9589 34.5785 31.0576 34.2765 27.1572 33.7544C23.4936 33.2619 19.8245 32.6188 16.1636 31.7552C14.0896 31.195 12.0303 30.3905 10.0003 29.3474C9.02099 28.8488 8.08529 28.0752 7.23202 27.0589C5.34698 24.8483 5.06158 21.6598 6.36276 18.7578C7.16303 17.1315 8.16995 15.8498 9.31446 15.0004C11.8427 12.9989 14.5105 11.5013 17.2699 10.5347C21.0575 9.09645 24.96 8.43588 28.8994 8.56622C29.8848 8.60024 30.353 9.04307 30.3621 9.96029C30.3712 10.8775 29.9829 11.2093 29.0664 11.2968C26.73 11.578 24.392 11.7147 22.0703 12.1773C18.11 12.9014 14.2711 14.6182 10.6719 17.2747C9.84279 17.888 9.06686 18.6784 8.36109 19.6288C6.7605 21.8325 6.94814 23.8954 8.89404 25.5051C9.8264 26.2569 10.7917 26.8588 11.777 27.3026C14.8531 28.6857 17.9782 29.5619 21.1091 29.9189C27.0579 30.7117 33.0068 31.4479 38.9499 31.9708C43.3125 32.3074 47.6709 32.2797 50.2805 32.3276Z" fill="#92BAFB"/>
      </svg>